<svg xmlns="http://www.w3.org/2000/svg" xmlns:xlink="http://www.w3.org/1999/xlink" fill="#8c6910" height="800px" width="800px" version="1.1" id="Layer_1" viewBox="0 0 484.849 484.849" xml:space="preserve">
<g>
	<circle cx="294.924" cy="194.924" r="44.138" fill="#8c6910"/>
	<path d="M374.924,334.062c0-44.183-35.817-80-80-80c-44.183,0-80,35.817-80,80H374.924z" fill="#8c6910"/>
	<path d="M49.924,0v113.712h-22.5v30h22.5v83.712h-25v30h25v83.712h-25v30h25v113.712h410V0H49.924z M79.924,371.136h25v-30h-25   v-83.712h25v-30h-25v-83.712h25v-30h-25V30h50v424.849h-50V371.136z M429.924,454.849h-270V30h270V454.849z" fill="#8c6910"/>
</g>
</svg>